<svg height="584.258667" viewBox="0 0 1122.52 584.25867" width="1122.52002" xmlns="http://www.w3.org/2000/svg" xmlns:xlink="http://www.w3.org/1999/xlink"><clipPath id="a"><path d="m695.13225 175.08748h172.94716v201.828h-172.94716zm45.36666 113.33333v51.688s46.99202-.53806 63.69062-1.42368c17.0259-.90298 18.23738-20.82032 18.23738-20.82032s.0364-.18955.0841-2.52516c.63186-30.96057-40.39387-26.93814-40.39387-26.93814z"/></clipPath><g fill="none" stroke="#000"><g><path d="m222.62159 179.46348 733.22532.072"/><path d="m146.8656 212.23015 338.42132-1.196"/><path d="m193.00693 371.94614 658.33198.57334"/><path d="m289.99626 133.12615-.168 238.78933"/><path d="m485.08839 163.29548-.2788 24.59935"/><path d="m484.80959 200.73738-.46072 171.27311"/><path d="m501.74428 163.28981-.14296 37.44623"/><path d="m501.60132 352.68043.14296 37.00317"/><path d="m700.31758 379.39148s.27136-111.45826.39772-167.18741c.0363-16.02019.10362-48.06059.10362-48.06059l-.10362 48.06059-36.27513-.38574"/><path d="m908.53758 254.77414-62.916-.58266"/></g><g><path d="m282.24159 391.42881 104.99867-262.18933 104.79199 261.07466"/><path d="m333.82426 371.83414 53.59066-146.88133 55.364 146.88133"/><path d="m358.70959 301.80748h57.25467l8.17593 20.57791-71.2786-.0112"/></g><g><path d="m-155.792-81.864c-13.58-7.97-36.806-4.678-45.634 15.594-2.669 6.144-3.885 12.625-4.518 19.237-.736 7.639-.821 15.294-.023 22.933.867 8.346 2.501 16.499 7.325 23.571 5.876 8.598 14.09 13.339 24.483 14.282 1.09271.09935 2.17952.161278 3.25953.180862 5.08354.09218 10.01645-.75369 14.70447-3.049862 8.234-4.027 13.526-10.615 15.693-19.421 2.151-8.706 3.636-17.565 3.459-26.608-.257-10.247-1.196-20.379-5.104-30.013-2.827-6.972-7.03-12.817-13.645-16.706" stroke-width=".99975" transform="matrix(1.3333333 0 0 -1.3333333 814.87891 228.27681)"/><path d="m624.5457 366.07338c-32.6884 15.53845-88.5957 9.12032-109.84557-30.40237-6.42455-11.97845-9.35158-24.61394-10.87527-37.50482-1.77165-14.89314-1.97624-29.81747-.0554-44.71062 2.08694-16.27152 6.02016-32.16676 17.632-45.95447 14.1441-16.76284 33.91603-26.00597 58.93302-27.84446 2.63025-.1937 5.24631-.31443 7.84602-.35261 12.23658-.17972 24.11058 1.4694 35.39512 5.94606 19.73922 7.89801 34.35313 28.11536 40.40322 48.02364 3.95087 17.33438 2.94948 21.06598 4.16232 38.49375-.61861 19.97776-1.34366 42.95293-10.75061 61.73555-6.80487 13.59275-16.9219 24.98827-32.84487 32.57035"/><path d="m664.44017 312.37906c-11.74133-3.65067-23.24533-7.20933-34.96133-10.85067 3.688-20.024 3.412-39.90533-1.47733-59.776 12.048-2.844 23.91066-5.624 35.97733-8.47866l-.664.164c5.952 26.49733 6.75066 52.49466 1.12533 78.94133"/></g><g><path d="m700.15358 180.22081 108.95733-.13333s40.90142 3.77932 44.41448 44.08653c2.72202 31.23115-25.94514 45.3268-25.94514 45.3268s36.7171 11.0468 35.468 45.60267c-1.98924 55.03154-51.41067 56.812-51.41067 56.812l-111.50533-.0507 1.47467-117.75467 97.27733.072s18.28333-2.11635 15.99466-25.90533-2.51842-15.63733-18.21333-15.63733-95.95028-.43538-95.95028-.43538l.12206-32.70459"/><path d="m740.49891 288.42081 41.61823-.0193s41.02573-4.02243 40.39387 26.93814c-.0477 2.33561-.0841 2.52516-.0841 2.52516s-1.21148 19.91734-18.23738 20.82032c-16.6986.88562-63.69062 1.42368-63.69062 1.42368z"/></g></g><path d="m484.34887 372.01049-76.79007-192.1502-40.45003.17519-76.97597 191.97501 43.69146-.17635 53.59066-146.88133 55.364 146.88133z"/><path d="m587.01293 209.69833c-1.44002.0261-2.8891.10868-4.34604.24115-13.85734 1.25733-24.80934 7.57866-32.644 19.04266-6.432 9.42934-8.61067 20.3-9.76667 31.428-1.06397 10.18534-.95064 20.392.0307 30.57734.844 8.81599 2.46533 17.45733 6.024 25.64933 11.77066 27.02933 42.73866 31.41866 60.84533 20.792m-20.14332-127.73048c22.76186-1.44731 35.72661 12.48913 40.98858 32.05406l35.46768-8.96523c-9.66468-31.30717-32.70409-53.91973-75.28869-53.48313-2.59971.0382-5.21577.15891-7.84602.35261-25.01699 1.83849-44.78892 11.08162-58.93302 27.84446-11.61184 13.78771-15.54506 29.68295-17.632 45.95447-1.92084 14.89315-1.71625 29.81748.0554 44.71062 1.52369 12.89088 4.45072 25.52637 10.87527 37.50482 21.24987 39.52269 77.15717 45.94082 109.84557 30.40237 23.30405-12.53083 35.75346-30.35458 39.89447-53.69432l-34.96133-10.85067c-4.12926 13.62575-8.71307 27.14035-22.32259 35.90042" fill-rule="evenodd"/><path clip-path="url(#a)" d="m701.16563 180.21957 107.94528-.13209s40.90142 3.77932 44.41448 44.08653c2.72202 31.23115-25.94514 45.3268-25.94514 45.3268s36.7171 11.0468 35.468 45.60267c-1.98924 55.03154-51.41067 56.812-51.41067 56.812l-111.50533-.0507 1.47467-117.75467 97.27733.072s18.28333-2.11635 15.99466-25.90533-2.51842-15.63733-18.21333-15.63733-95.96025.27308-95.96025.27308z"/></svg>